<svg width="35" height="33" viewBox="0 0 35 33" fill="none" xmlns="http://www.w3.org/2000/svg">
<path d="M34.8847 2.30115C34.9624 2.12177 34.9814 1.92526 34.9394 1.73599C34.8974 1.54671 34.7962 1.373 34.6483 1.23637C34.5005 1.09975 34.3124 1.00623 34.1076 0.967401C33.9028 0.928574 33.6901 0.946151 33.496 1.01795L2.41665 12.5055H2.41451L1.44882 12.8609C1.26592 12.9283 1.10674 13.0411 0.988873 13.1869C0.871004 13.3326 0.79903 13.5056 0.780903 13.6868C0.762776 13.868 0.799201 14.0503 0.886154 14.2136C0.973107 14.3768 1.1072 14.5147 1.27363 14.6119L2.14959 15.1252L2.15172 15.1292L12.8234 21.403L19.6131 31.2639L19.6174 31.2678L20.1729 32.0772C20.2785 32.2304 20.4278 32.3537 20.6043 32.4336C20.7809 32.5134 20.9778 32.5467 21.1735 32.5297C21.3693 32.5128 21.5561 32.4463 21.7135 32.3375C21.871 32.2288 21.9929 32.082 22.0658 31.9134L34.8847 2.30115ZM30.9685 6.03229L14.9578 20.8266L14.4984 20.1593C14.4143 20.0369 14.3019 19.9331 14.1694 19.8553L13.4473 19.4308L29.458 4.63657L31.9748 3.70674L30.9685 6.03229Z" fill="#2475C0"/>
</svg>
