<svg width="64" height="64" viewBox="0 0 64 64" fill="none" xmlns="http://www.w3.org/2000/svg">
<g clip-path="url(#clip0_7164_1628)">
<path d="M34.1503 31.7164L42.7903 23.0764C43.0815 22.7363 43.2337 22.2988 43.2165 21.8514C43.1992 21.404 43.0137 20.9795 42.6971 20.6629C42.3805 20.3463 41.956 20.1608 41.5086 20.1435C41.0612 20.1263 40.6237 20.2785 40.2836 20.5697L31.6436 29.1208L22.9503 20.4275C22.6102 20.1362 22.1727 19.984 21.7253 20.0013C21.2779 20.0186 20.8535 20.2041 20.5369 20.5207C20.2202 20.8373 20.0348 21.2617 20.0175 21.7092C20.0002 22.1566 20.1524 22.5941 20.4436 22.9341L29.1192 31.7164L20.6214 40.1075C20.4353 40.2669 20.2842 40.463 20.1775 40.6835C20.0707 40.9041 20.0108 41.1443 20.0013 41.3892C19.9919 41.634 20.0331 41.8781 20.1225 42.1063C20.2119 42.3344 20.3474 42.5416 20.5207 42.7149C20.694 42.8881 20.9011 43.0237 21.1293 43.1131C21.3574 43.2024 21.6016 43.2437 21.8464 43.2342C22.0912 43.2248 22.3315 43.1648 22.552 43.0581C22.7726 42.9514 22.9687 42.8002 23.1281 42.6141L31.6081 34.1341L40.0347 42.5608C40.3748 42.8521 40.8123 43.0042 41.2597 42.987C41.7072 42.9697 42.1316 42.7842 42.4482 42.4676C42.7648 42.151 42.9503 41.7266 42.9676 41.2791C42.9848 40.8317 42.8327 40.3942 42.5414 40.0541L34.1503 31.7164Z" fill="#FF000D"/>
<path d="M32.0001 60.4446C26.3743 60.4446 20.8749 58.7763 16.1972 55.6508C11.5196 52.5253 7.87377 48.0829 5.72088 42.8853C3.56799 37.6878 3.00469 31.9686 4.10223 26.4509C5.19976 20.9332 7.90883 15.8649 11.8869 11.8869C15.8649 7.90883 20.9332 5.19976 26.4509 4.10223C31.9686 3.00469 37.6878 3.56799 42.8853 5.72088C48.0829 7.87377 52.5253 11.5196 55.6508 16.1972C58.7763 20.8749 60.4446 26.3743 60.4446 32.0001C60.4446 39.5441 57.4477 46.779 52.1134 52.1134C46.779 57.4477 39.5441 60.4446 32.0001 60.4446ZM32.0001 7.11123C27.0776 7.11123 22.2656 8.57094 18.1726 11.3058C14.0796 14.0406 10.8896 17.9277 9.00579 22.4756C7.12201 27.0234 6.62912 32.0277 7.58947 36.8557C8.54981 41.6837 10.9202 46.1184 14.401 49.5992C17.8818 53.08 22.3166 55.4504 27.1445 56.4108C31.9725 57.3711 36.9768 56.8782 41.5247 54.9945C46.0725 53.1107 49.9596 49.9206 52.6945 45.8276C55.4293 41.7347 56.889 36.9227 56.889 32.0001C56.889 25.3992 54.2668 19.0686 49.5992 14.401C44.9316 9.73345 38.6011 7.11123 32.0001 7.11123Z" fill="#FF000D"/>
</g>
<defs>
<clipPath id="clip0_7164_1628">
<rect width="64" height="64" fill="white"/>
</clipPath>
</defs>
</svg>
