<svg width="6" height="4" viewBox="0 0 6 4" fill="none" xmlns="http://www.w3.org/2000/svg">
<path d="M5.86793 0.15296C5.78334 0.0550201 5.66863 4.47868e-07 5.54902 4.37411e-07C5.42941 4.26955e-07 5.3147 0.05502 5.23011 0.15296L2.99728 2.73897L0.764445 0.15296C0.679371 0.0577953 0.565428 0.00513745 0.447157 0.00632786C0.328886 0.00751803 0.21575 0.0624611 0.132117 0.159323C0.0484839 0.256185 0.00104475 0.387217 1.71474e-05 0.524195C-0.00101045 0.661174 0.0444555 0.79314 0.126623 0.891671L2.67837 3.84704C2.76295 3.94498 2.87767 4 2.99728 4C3.11689 4 3.2316 3.94498 3.31619 3.84704L5.86793 0.891671C5.9525 0.793702 6 0.660845 6 0.522316C6 0.383787 5.9525 0.25093 5.86793 0.15296Z" fill="#2970B1"/>
<path d="M5.86793 0.15296C5.78334 0.0550201 5.66863 4.47868e-07 5.54902 4.37411e-07C5.42941 4.26955e-07 5.3147 0.05502 5.23011 0.15296L2.99728 2.73897L0.764445 0.15296C0.679371 0.0577953 0.565428 0.00513745 0.447157 0.00632786C0.328886 0.00751803 0.21575 0.0624611 0.132117 0.159323C0.0484839 0.256185 0.00104475 0.387217 1.71474e-05 0.524195C-0.00101045 0.661174 0.0444555 0.79314 0.126623 0.891671L2.67837 3.84704C2.76295 3.94498 2.87767 4 2.99728 4C3.11689 4 3.2316 3.94498 3.31619 3.84704L5.86793 0.891671C5.9525 0.793702 6 0.660845 6 0.522316C6 0.383787 5.9525 0.25093 5.86793 0.15296Z" stroke="#2475C0"/>
</svg>
