<svg width="12" height="12" viewBox="0 0 12 12" fill="none" xmlns="http://www.w3.org/2000/svg">
<path d="M5.7415 11.7907C4.27114 11.7907 2.9897 11.3105 1.89719 10.3502C0.804669 9.3909 0.172274 8.18209 0 6.72379H0.731802C0.928687 7.9688 1.49594 9.00389 2.43355 9.82907C3.37213 10.6542 4.47478 11.0668 5.7415 11.0668C7.15299 11.0668 8.35022 10.5753 9.3332 9.59237C10.3162 8.6094 10.8079 7.41192 10.8084 5.99995C10.8084 4.58846 10.3167 3.39099 9.3332 2.40753C8.34974 1.42407 7.15251 0.932586 5.7415 0.933069C4.99257 0.933069 4.28851 1.09135 3.62934 1.40791C2.97064 1.72447 2.38916 2.16022 1.88488 2.71516H3.68073V3.439H0.674619V0.432171H1.39846V2.1607C1.95823 1.5464 2.61403 1.0677 3.36586 0.724603C4.11769 0.38102 4.90957 0.209229 5.7415 0.209229C6.544 0.209229 7.29631 0.36027 7.99844 0.662353C8.70056 0.964435 9.31389 1.37775 9.83844 1.90229C10.363 2.42683 10.7765 3.04041 11.0791 3.74302C11.3812 4.44514 11.5322 5.19745 11.5322 5.99995C11.5322 6.80245 11.3812 7.55476 11.0791 8.25689C10.777 8.95901 10.3635 9.57259 9.83844 10.0976C9.31389 10.6222 8.70056 11.0355 7.99844 11.3376C7.29631 11.6396 6.544 11.7907 5.7415 11.7907ZM8.05996 8.78963L5.42084 6.15051V2.38075H6.14468V5.84939L8.57244 8.27715L8.05996 8.78963Z" fill="#2475C0"/>
</svg>
